# xmcd
#
# Track frame offsets: 
#        150
#        17783
#        34786
#        57846
#        77946
#        94066
#        111831
#        125891
#        150641
#        170213
#        198051
#        218583
#        240857
#        255611
#        275758
#        304128
#        314473
#        343052
#
# Disc length: 4790 seconds
#
# Revision: 1
# Processed by: cddbd v1.5.2PL0 Copyright (c) Steve Scherf et al.
# Submitted via: ExactAudioCopy v1.1
#
DISCID=0012b412
DTITLE=Various Artist - Akella Presents - vol.99 - Rockin' Blues  CD1
DYEAR=2016
DGENRE=Rockin' Blues
TTITLE0=Blinddog Smokin' - Money
TTITLE1=Big Al and the Heavyweights - That Ain't Nice
TTITLE2=Willie May - Stranger In My House
TTITLE3=Royal Southern Brotherhood - I'm Comin' Home
TTITLE4=Thorbjorn Risager - Take It Off
TTITLE5=Alex Jenkins and The Bombers - Suicide Blues
TTITLE6=Manu Lanvin - JJ Cale On The Radio
TTITLE7=Max Meazza and Pueblo - Black And White Generation
TTITLE8=Magnus Berg - St. Pete Boogie
TTITLE9=Rick Gibson Band - Curtis Lee
TTITLE10=The Juke Hounds - Forgiving Guy
TTITLE11=Jeff Gates Band - I Saw the Light
TTITLE12=Final Step Blues Band - Hoochie Coochie Man
TTITLE13=Red Rooster - Bluesin' Up
TTITLE14=Jimmy Thackery And The Drivers - Lickin' Gravy
TTITLE15=American Blues Box - Biscuit Bakin Mama
TTITLE16=Anders Osborne - Move Back To Mississippi
TTITLE17=The Steepwater Band - Ain't Got Love
EXTD=
EXTT0=
EXTT1=
EXTT2=
EXTT3=
EXTT4=
EXTT5=
EXTT6=
EXTT7=
EXTT8=
EXTT9=
EXTT10=
EXTT11=
EXTT12=
EXTT13=
EXTT14=
EXTT15=
EXTT16=
EXTT17=
PLAYORDER=
